<?xml version="1.0" encoding="utf-8"?>
<!-- Generator: Adobe Illustrator 24.2.3, SVG Export Plug-In . SVG Version: 6.00 Build 0)  -->
<svg version="1.1" id="Connect_Wallet" xmlns="http://www.w3.org/2000/svg" xmlns:xlink="http://www.w3.org/1999/xlink" x="0px"
	 y="0px" viewBox="0 0 655 370" style="enable-background:new 0 0 655 370;" xml:space="preserve">
<style type="text/css">
	.st0{fill:#FFFFFF;}
</style>
<g>
	<g>
		<g>
			<path class="st0" d="M86.11,56.2c-1.11-1.78-2.49-3.34-4.16-4.69c-1.66-1.35-3.54-2.39-5.64-3.15c-2.1-0.75-4.3-1.13-6.59-1.13
				c-4.2,0-7.76,0.81-10.69,2.43c-2.93,1.62-5.3,3.8-7.12,6.53c-1.82,2.73-3.15,5.84-3.98,9.32C47.1,69,46.69,72.6,46.69,76.32
				c0,3.56,0.42,7.03,1.25,10.39c0.83,3.37,2.16,6.39,3.98,9.08c1.82,2.69,4.2,4.85,7.12,6.47c2.93,1.62,6.49,2.43,10.69,2.43
				c5.7,0,10.15-1.74,13.36-5.23c3.21-3.48,5.17-8.07,5.88-13.77h18.05c-0.48,5.3-1.7,10.09-3.68,14.37
				c-1.98,4.27-4.59,7.92-7.84,10.93c-3.25,3.01-7.05,5.3-11.4,6.89c-4.35,1.58-9.14,2.38-14.37,2.38c-6.49,0-12.33-1.13-17.52-3.38
				c-5.19-2.26-9.56-5.36-13.12-9.32c-3.56-3.96-6.29-8.61-8.19-13.95c-1.9-5.34-2.85-11.1-2.85-17.28c0-6.33,0.95-12.21,2.85-17.63
				c1.9-5.42,4.63-10.15,8.19-14.19c3.56-4.04,7.94-7.2,13.12-9.5c5.18-2.3,11.02-3.44,17.52-3.44c4.67,0,9.08,0.67,13.24,2.02
				c4.16,1.35,7.88,3.31,11.16,5.88c3.28,2.57,6,5.76,8.13,9.56c2.14,3.8,3.48,8.15,4.04,13.06H88.25
				C87.93,59.94,87.22,57.98,86.11,56.2z"/>
			<path class="st0" d="M165.44,33.57c3.8,0,7.22,0.61,10.27,1.84c3.05,1.23,5.66,2.91,7.84,5.05c2.18,2.14,3.84,4.61,4.99,7.42
				c1.15,2.81,1.72,5.84,1.72,9.08c0,4.99-1.05,9.3-3.15,12.94c-2.1,3.64-5.52,6.41-10.27,8.31v0.24c2.3,0.63,4.2,1.6,5.7,2.91
				c1.5,1.31,2.73,2.85,3.68,4.63c0.95,1.78,1.64,3.74,2.08,5.88c0.43,2.14,0.73,4.28,0.89,6.41c0.08,1.35,0.16,2.93,0.24,4.75
				c0.08,1.82,0.22,3.68,0.42,5.58c0.2,1.9,0.51,3.7,0.95,5.4c0.43,1.7,1.09,3.15,1.96,4.33H174.1c-1.03-2.69-1.66-5.9-1.9-9.62
				c-0.24-3.72-0.59-7.28-1.07-10.69c-0.63-4.43-1.98-7.68-4.04-9.74c-2.06-2.06-5.42-3.09-10.09-3.09h-18.64v33.13h-18.64V33.57
				H165.44z M158.79,71.93c4.27,0,7.48-0.95,9.62-2.85c2.14-1.9,3.21-4.99,3.21-9.26c0-4.12-1.07-7.1-3.21-8.97
				c-2.14-1.86-5.34-2.79-9.62-2.79h-20.43v23.87H158.79z"/>
			<path class="st0" d="M268.87,33.57v15.68H224.1v18.17h41.09v14.49H224.1v20.78h45.72v15.67h-64.36V33.57H268.87z"/>
			<path class="st0" d="M324.68,33.57l31.71,84.79h-19.36l-6.41-18.88h-31.71l-6.65,18.88H273.5l32.06-84.79H324.68z M325.75,85.59
				l-10.69-31.11h-0.24l-11.04,31.11H325.75z"/>
			<path class="st0" d="M346.17,49.25V33.57h69.47v15.68h-25.41v69.11h-18.64V49.25H346.17z"/>
			<path class="st0" d="M488.79,33.57v15.68h-44.77v18.17h41.09v14.49h-41.09v20.78h45.72v15.67h-64.36V33.57H488.79z"/>
			<path class="st0" d="M45.97,216.21c1.03,1.98,2.39,3.58,4.1,4.81c1.7,1.23,3.7,2.14,6,2.73c2.29,0.59,4.67,0.89,7.12,0.89
				c1.66,0,3.44-0.14,5.34-0.42c1.9-0.28,3.68-0.81,5.34-1.6c1.66-0.79,3.05-1.88,4.16-3.27c1.11-1.38,1.66-3.15,1.66-5.28
				c0-2.29-0.73-4.16-2.2-5.58c-1.47-1.43-3.38-2.61-5.76-3.56c-2.38-0.95-5.07-1.78-8.07-2.49c-3.01-0.71-6.06-1.5-9.14-2.38
				c-3.17-0.79-6.25-1.76-9.26-2.91c-3.01-1.15-5.7-2.63-8.08-4.45c-2.38-1.82-4.3-4.1-5.76-6.83c-1.47-2.73-2.2-6.04-2.2-9.92
				c0-4.35,0.93-8.13,2.79-11.34c1.86-3.21,4.29-5.88,7.3-8.02c3.01-2.14,6.41-3.72,10.21-4.75c3.8-1.03,7.6-1.54,11.4-1.54
				c4.43,0,8.69,0.5,12.77,1.48c4.08,0.99,7.7,2.59,10.87,4.81c3.17,2.22,5.68,5.05,7.54,8.49c1.86,3.44,2.79,7.62,2.79,12.53H76.85
				c-0.16-2.53-0.69-4.63-1.6-6.29c-0.91-1.66-2.12-2.97-3.62-3.92c-1.5-0.95-3.23-1.62-5.17-2.02c-1.94-0.4-4.06-0.59-6.35-0.59
				c-1.5,0-3.01,0.16-4.51,0.48c-1.5,0.32-2.87,0.87-4.1,1.66c-1.23,0.79-2.24,1.78-3.03,2.97c-0.79,1.19-1.19,2.69-1.19,4.51
				c0,1.66,0.32,3.01,0.95,4.04c0.63,1.03,1.88,1.98,3.74,2.85c1.86,0.87,4.43,1.74,7.72,2.61c3.28,0.87,7.58,1.98,12.88,3.33
				c1.58,0.32,3.78,0.89,6.59,1.72c2.81,0.83,5.6,2.16,8.37,3.98c2.77,1.82,5.17,4.26,7.18,7.3c2.02,3.05,3.03,6.95,3.03,11.7
				c0,3.88-0.75,7.48-2.26,10.81c-1.5,3.32-3.74,6.2-6.71,8.61c-2.97,2.42-6.65,4.3-11.04,5.64c-4.39,1.35-9.48,2.02-15.26,2.02
				c-4.67,0-9.2-0.58-13.6-1.72c-4.39-1.15-8.27-2.95-11.64-5.4c-3.37-2.45-6.04-5.58-8.02-9.38c-1.98-3.8-2.93-8.31-2.85-13.54
				h18.05C44.43,211.82,44.94,214.23,45.97,216.21z"/>
			<path class="st0" d="M135.04,152.32l19.83,58.31h0.24l18.76-58.31h26.24v84.79h-17.46v-60.09h-0.24l-20.78,60.09h-14.37
				l-20.78-59.49h-0.24v59.49h-17.46v-84.79H135.04z"/>
			<path class="st0" d="M209.85,168v-15.68h69.47V168H253.9v69.11h-18.64V168H209.85z"/>
			<path class="st0" d="M307.7,152.32v32.54h34.32v-32.54h18.64v84.79h-18.64v-36.58H307.7v36.58h-18.64v-84.79H307.7z"/>
			<path class="st0" d="M427.28,236.46c-4.04,1.7-8.12,2.55-12.23,2.55c-6.49,0-12.33-1.13-17.52-3.38
				c-5.19-2.26-9.56-5.36-13.12-9.32c-3.56-3.96-6.29-8.61-8.19-13.95c-1.9-5.34-2.85-11.1-2.85-17.28c0-6.33,0.95-12.21,2.85-17.63
				c1.9-5.42,4.63-10.15,8.19-14.19c3.56-4.04,7.94-7.2,13.12-9.5c5.18-2.3,11.02-3.44,17.52-3.44c4.35,0,8.57,0.65,12.65,1.96
				c4.08,1.31,7.76,3.23,11.04,5.76c3.28,2.53,6,5.66,8.13,9.38c2.14,3.72,3.44,8,3.92,12.82h-17.81
				c-1.11-4.75-3.25-8.31-6.41-10.69c-3.17-2.38-7.01-3.56-11.52-3.56c-4.2,0-7.76,0.81-10.69,2.43c-2.93,1.62-5.3,3.8-7.12,6.53
				c-1.82,2.73-3.15,5.84-3.98,9.32c-0.83,3.48-1.25,7.09-1.25,10.81c0,3.56,0.42,7.03,1.25,10.39c0.83,3.37,2.16,6.39,3.98,9.08
				c1.82,2.69,4.2,4.85,7.12,6.47c2.93,1.62,6.49,2.43,10.69,2.43c6.18,0,10.94-1.56,14.31-4.69c3.36-3.13,5.32-7.66,5.88-13.6
				h-18.76v-13.89h35.62v45.84h-11.88l-1.9-9.62C435,231.77,431.32,234.76,427.28,236.46z"/>
			<path class="st0" d="M74,271.08l31.71,84.79H86.35l-6.41-18.88H48.23l-6.65,18.88H22.82l32.06-84.79H74z M75.07,323.09
				l-10.69-31.11h-0.24L53.1,323.09H75.07z"/>
			<path class="st0" d="M172.44,355.86l-14.37-57.71h-0.24l-14.13,57.71h-18.88l-22.44-84.79h18.64l13.42,57.71h0.24l14.73-57.71
				h17.46l14.49,58.42h0.24l13.89-58.42h18.29l-22.8,84.79H172.44z"/>
			<path class="st0" d="M285.73,271.08v15.67h-44.77v18.17h41.09v14.49h-41.09v20.78h45.72v15.67h-64.36v-84.79H285.73z"/>
			<path class="st0" d="M313.52,334.96c1.03,1.98,2.39,3.58,4.1,4.81c1.7,1.23,3.7,2.14,6,2.73c2.29,0.59,4.67,0.89,7.12,0.89
				c1.66,0,3.44-0.14,5.34-0.42c1.9-0.28,3.68-0.81,5.34-1.6c1.66-0.79,3.05-1.88,4.16-3.27c1.11-1.38,1.66-3.15,1.66-5.28
				c0-2.3-0.73-4.16-2.2-5.58c-1.46-1.42-3.38-2.61-5.76-3.56c-2.38-0.95-5.07-1.78-8.08-2.49c-3.01-0.71-6.06-1.5-9.14-2.38
				c-3.17-0.79-6.26-1.76-9.26-2.91c-3.01-1.15-5.7-2.63-8.07-4.45c-2.38-1.82-4.3-4.1-5.76-6.83c-1.47-2.73-2.2-6.04-2.2-9.92
				c0-4.35,0.93-8.13,2.79-11.34c1.86-3.21,4.29-5.88,7.3-8.02c3.01-2.14,6.41-3.72,10.21-4.75c3.8-1.03,7.6-1.54,11.4-1.54
				c4.43,0,8.69,0.5,12.77,1.48c4.08,0.99,7.7,2.59,10.87,4.81c3.17,2.22,5.68,5.05,7.54,8.49c1.86,3.44,2.79,7.62,2.79,12.53
				h-18.05c-0.16-2.53-0.69-4.63-1.6-6.29c-0.91-1.66-2.12-2.97-3.62-3.92c-1.51-0.95-3.23-1.62-5.17-2.02
				c-1.94-0.4-4.06-0.59-6.35-0.59c-1.5,0-3.01,0.16-4.51,0.47c-1.51,0.32-2.87,0.87-4.1,1.66c-1.23,0.79-2.24,1.78-3.03,2.97
				c-0.79,1.19-1.19,2.69-1.19,4.51c0,1.66,0.31,3.01,0.95,4.04c0.63,1.03,1.88,1.98,3.74,2.85c1.86,0.87,4.43,1.74,7.72,2.61
				c3.29,0.87,7.58,1.98,12.88,3.33c1.58,0.32,3.78,0.89,6.59,1.72c2.81,0.83,5.6,2.16,8.37,3.98c2.77,1.82,5.17,4.26,7.18,7.3
				c2.02,3.05,3.03,6.95,3.03,11.7c0,3.88-0.75,7.48-2.26,10.81c-1.51,3.33-3.74,6.2-6.71,8.61c-2.97,2.42-6.65,4.3-11.04,5.64
				c-4.39,1.35-9.48,2.02-15.26,2.02c-4.67,0-9.2-0.58-13.6-1.72c-4.39-1.15-8.27-2.95-11.64-5.4c-3.37-2.45-6.04-5.58-8.02-9.38
				c-1.98-3.8-2.93-8.31-2.85-13.54h18.05C311.97,330.57,312.49,332.98,313.52,334.96z"/>
			<path class="st0" d="M494.96,271.08l19.83,58.31h0.24l18.76-58.31h26.24v84.79h-17.46v-60.09h-0.24l-20.78,60.09H507.2
				l-20.78-59.49h-0.24v59.49h-17.46v-84.79H494.96z"/>
			<path class="st0" d="M639.84,271.08v15.67h-44.77v18.17h41.09v14.49h-41.09v20.78h45.72v15.67h-64.36v-84.79H639.84z"/>
		</g>
		<path class="st0" d="M461.58,313.32c0-25.37-20.56-45.94-45.94-45.94c-25.37,0-45.94,20.57-45.94,45.94
			c0,25.37,20.57,45.94,45.94,45.94C441.01,359.26,461.58,338.69,461.58,313.32z"/>
	</g>
	<g>
		<path class="st0" d="M554.27,33.89h63.75c3.74,0,6.23,3.74,4.73,7.22l-34.37,79.94l27.64-1c4.23-0.25,6.72,4.73,4.23,8.22
			l-86.41,119.78c-1.49,2.24-5.23,0.75-4.48-1.99l18.68-94.63l-23.66,1c-3.49,0.25-5.98-3.24-5.23-6.47l30.13-108.33
			C549.78,35.38,552.03,33.64,554.27,33.89z"/>
	</g>
</g>
</svg>
