<?xml version="1.0" encoding="utf-8"?>
<!-- Generator: Adobe Illustrator 24.2.3, SVG Export Plug-In . SVG Version: 6.00 Build 0)  -->
<svg version="1.1" id="Pictosis_logo" xmlns="http://www.w3.org/2000/svg" xmlns:xlink="http://www.w3.org/1999/xlink" x="0px"
	 y="0px" viewBox="0 0 336.42 92.72" style="enable-background:new 0 0 336.42 92.72;" xml:space="preserve">
<g>
	<path d="M46.35,0C20.75,0,0,20.76,0,46.36s20.76,46.36,46.35,46.36c25.61,0,46.36-20.76,46.36-46.36C92.71,20.76,71.96,0,46.35,0z"
		/>
	<path d="M132.76,23.18h-20.51v45.46h10v-16.3h10.51c11.34,0,15.72-7.19,15.72-14.58C148.48,30.38,144.1,23.18,132.76,23.18z
		 M130.02,44.57h-7.77V30.95h7.77c4.65,0,8.79,1.02,8.79,6.81S134.67,44.57,130.02,44.57z"/>
	<rect x="152.43" y="23.18" width="9.04" height="7.45"/>
	<rect x="152.43" y="35.72" width="9.04" height="32.92"/>
	<path d="M182.54,62.72c-5.66,0-7.51-5.67-7.51-10.38c0-4.84,1.91-10.69,7.7-10.69c3.76,0,6.12,1.98,6.69,5.66h8.85
		c-0.57-8.4-7.7-12.47-15.47-12.47c-10.7,0-16.81,7.58-16.81,17.82c0,9.87,6.69,16.87,16.62,16.87c8.66,0,14.71-4.77,15.86-13.49
		h-8.72C189.17,60.05,186.75,62.72,182.54,62.72z"/>
	<path d="M213.42,25.85h-9.04v9.87h-5.47v6.05h5.47v19.42c0,6.55,4.84,7.83,10.38,7.83c1.78,0,3.76-0.07,5.28-0.32v-7.07
		c-0.96,0.19-1.85,0.25-2.8,0.25c-3.05,0-3.82-0.76-3.82-3.82v-16.3h6.62v-6.05h-6.62L213.42,25.85L213.42,25.85z"/>
	<path d="M238.77,34.83c-10.32,0-17,6.88-17,17.38c0,10.44,6.68,17.32,17,17.32c10.38,0,17.06-6.87,17.06-17.32
		C255.83,41.71,249.15,34.83,238.77,34.83z M238.77,62.72c-6.12,0-7.96-5.28-7.96-10.51c0-5.28,1.84-10.57,7.96-10.57
		c6.17,0,8.02,5.28,8.02,10.57C246.78,57.44,244.94,62.72,238.77,62.72z"/>
	<path d="M278.55,48.84c-5.15-1.21-10.25-1.66-10.25-4.9c0-2.67,2.99-3.06,5.03-3.06c3.24,0,5.92,0.96,6.17,4.46h8.6
		c-0.7-8.09-7.33-10.51-14.52-10.51c-7.07,0-14.32,2.16-14.32,10.57c0,5.8,5.22,7.64,10.44,8.79c6.49,1.4,10.25,2.35,10.25,5.09
		c0,3.18-3.31,4.2-5.92,4.2c-3.56,0-6.88-1.6-6.94-5.54h-8.6c0.38,8.72,7.83,11.58,15.47,11.58c7.52,0,15.02-2.79,15.02-11.46
		C288.99,51.96,283.84,50.05,278.55,48.84z"/>
	<rect x="292.94" y="23.18" width="9.04" height="7.45"/>
	<rect x="292.94" y="35.72" width="9.04" height="32.92"/>
	<path d="M325.98,48.84c-5.15-1.21-10.25-1.66-10.25-4.9c0-2.67,3-3.06,5.02-3.06c3.25,0,5.93,0.96,6.18,4.46h8.6
		c-0.7-8.09-7.32-10.51-14.52-10.51c-7.07,0-14.32,2.16-14.32,10.57c0,5.8,5.22,7.64,10.44,8.79c6.49,1.4,10.25,2.35,10.25,5.09
		c0,3.18-3.31,4.2-5.92,4.2c-3.56,0-6.87-1.6-6.94-5.54h-8.6c0.38,8.72,7.83,11.58,15.47,11.58c7.51,0,15.03-2.79,15.03-11.46
		C336.43,51.96,331.28,50.05,325.98,48.84z"/>
</g>
</svg>
